<svg version="1.1" xmlns="http://www.w3.org/2000/svg" viewBox="0 0 1024 1024">
    <path d="M857.6 312c0-20.8-8.832-41.28-25.344-56.832A94.08 94.08 0 0 0 768 230.4H256a94.08 94.08 0 0 0-64.256 24.768 77.952 77.952 0 0 0-25.344 56.832v400c0 20.8 8.832 41.28 25.344 56.832 16.64 15.616 39.68 24.768 64.256 24.768h512a94.08 94.08 0 0 0 64.256-24.768c16.512-15.552 25.344-36.032 25.344-56.832v-400z m76.8 400c0 42.88-18.176 83.392-49.664 112.896a170.88 170.88 0 0 1-116.736 45.44H256a170.88 170.88 0 0 1-116.736-45.44 154.752 154.752 0 0 1-49.664-112.896v-400c0-42.88 18.176-83.392 49.664-112.896A170.88 170.88 0 0 1 256 153.664h512c43.328 0 85.376 16.064 116.736 45.44 31.488 29.504 49.664 70.08 49.664 112.896v400z"/>
    <path d="M430.912 426.688a46.976 46.976 0 1 0-94.016 0 46.976 46.976 0 0 0 94.016 0z m76.8 0a123.776 123.776 0 1 1-247.552 0 123.776 123.776 0 0 1 247.552 0zM725.312 302.976a38.4 38.4 0 1 1 0 76.8H640a38.4 38.4 0 1 1 0-76.8h85.312zM725.312 473.6a38.4 38.4 0 1 1 0 76.8H640a38.4 38.4 0 1 1 0-76.8h85.312zM725.312 644.224a38.4 38.4 0 1 1 0 76.8H298.624a38.4 38.4 0 1 1 0-76.8h426.688z"/>
</svg>