<svg version="1.1" xmlns="http://www.w3.org/2000/svg" viewBox="0 0 1024 1024">
    <path d="M649.152 601.664a38.4 38.4 0 0 1 0 76.8H557.696a38.464 38.464 0 0 1 0-76.8h91.456z m0-170.688a38.4 38.4 0 0 1 0 76.8H374.848a38.4 38.4 0 0 1 0-76.8h274.304z m0-170.624a38.4 38.4 0 0 1 0 76.8H374.848a38.4 38.4 0 1 1 0-76.8h274.304z"/>
    <path d="M793.6 192a25.6 25.6 0 0 0-25.6-25.6H256a25.6 25.6 0 0 0-25.6 25.6v634.88l78.464-48.832 5.696-2.944a38.464 38.464 0 0 1 40.832 7.488l65.152 60.8 65.28-60.8 5.888-4.544a38.4 38.4 0 0 1 46.464 4.544l65.216 60.8 65.28-60.8 4.992-3.968a38.4 38.4 0 0 1 41.472-0.576l78.464 48.832V192z m76.8 704a38.4 38.4 0 0 1-58.688 32.64l-112.192-69.824-69.888 65.28a38.4 38.4 0 0 1-52.352 0L512 863.04l-65.28 60.928a38.4 38.4 0 0 1-52.352 0l-69.952-65.28-112.128 69.824A38.4 38.4 0 0 1 153.6 896V192A102.4 102.4 0 0 1 256 89.6h512A102.4 102.4 0 0 1 870.4 192v704z"/>
</svg>