<svg version="1.1" xmlns="http://www.w3.org/2000/svg" viewBox="0 0 1024 1024">
    <path d="M516.224 298.688a132.352 132.352 0 0 0-225.792-93.568A132.352 132.352 0 0 0 384 430.912a132.288 132.288 0 0 0 132.224-132.224z m76.8 0a209.088 209.088 0 1 1-418.112-0.128 209.088 209.088 0 0 1 418.176 0.128zM89.6 896v-85.312A209.152 209.152 0 0 1 298.688 601.6h170.624c50.112 0 96.192 17.664 132.224 47.104a38.4 38.4 0 0 1-48.576 59.52 131.84 131.84 0 0 0-83.648-29.824H298.688a132.352 132.352 0 0 0-132.352 132.288V896A38.4 38.4 0 1 1 89.6 896zM772.608 298.88a132.288 132.288 0 0 0-99.456-128.128 38.4 38.4 0 0 1 19.008-74.432 209.152 209.152 0 0 1 113.28 330.688 209.216 209.216 0 0 1-113.28 74.432 38.4 38.4 0 1 1-19.008-74.432 132.224 132.224 0 0 0 99.456-128.128zM938.688 772.288a38.4 38.4 0 1 1 0 76.8h-256a38.4 38.4 0 1 1 0-76.8h256z"/>
    <path d="M772.288 938.688v-256a38.4 38.4 0 1 1 76.8 0v256a38.4 38.4 0 1 1-76.8 0z"/>
</svg>